<svg xmlns="http://www.w3.org/2000/svg" width="42" height="42" viewBox="0 0 42 42">
  <g id="_3366msq" data-name="3366msq" transform="translate(-0.409 0.076)">
    <rect id="矩形_1" data-name="矩形 1" width="42" height="42" rx="21" transform="translate(0.409 -0.076)" fill="#ff78a6"/>
    <path id="路径_48" data-name="路径 48" d="M98.238,95.987a5.4,5.4,0,0,0-1.62.247,5.276,5.276,0,0,1-.222-4.079,6.643,6.643,0,0,1,.863-1.656l.685.661a1.346,1.346,0,0,0,1.869-1.937L93.4,83.036a1.346,1.346,0,1,0-1.869,1.937l1.144,1.1a12.167,12.167,0,0,0-3.936,2.189,10.941,10.941,0,0,0-2.65,3.318,11.658,11.658,0,0,0-.862,2.157q-.171-.008-.344-.008a7.274,7.274,0,1,0,1.836.234,10.174,10.174,0,0,1,.7-1.691A9.455,9.455,0,0,1,89.7,89.408a11.015,11.015,0,0,1,4.2-2.147l2.27,2.19a8.212,8.212,0,0,0-1.167,2.15,6.8,6.8,0,0,0,.263,5.275,5.4,5.4,0,1,0,2.97-.889ZM82.682,98.005a2.2,2.2,0,0,0-1.7,1.789.6.6,0,0,1-.591.509.575.575,0,0,1-.09-.007.6.6,0,0,1-.5-.681,3.41,3.41,0,0,1,2.753-2.8.6.6,0,1,1,.129,1.189Z" transform="translate(-69.966 -75.873)" fill="#fff"/>
  </g>
</svg>
