<svg id="bl" xmlns="http://www.w3.org/2000/svg" width="42" height="42" viewBox="0 0 42 42">
  <rect id="矩形_1" data-name="矩形 1" width="42" height="42" rx="21" fill="#00a1d6"/>
  <path id="bilibili-fill" d="M104.486,116.468a1.429,1.429,0,0,1,0,2.048l-1.349,1.323h1.381a4.387,4.387,0,0,1,4.427,4.346v8.69a4.387,4.387,0,0,1-4.427,4.345H89.761a4.387,4.387,0,0,1-4.427-4.345v-8.69a4.387,4.387,0,0,1,4.427-4.345h1.377l-1.347-1.323a1.429,1.429,0,0,1,0-2.048,1.5,1.5,0,0,1,2.087,0l3.131,3.073a1.435,1.435,0,0,1,.234.3h3.793a1.416,1.416,0,0,1,.235-.3l3.13-3.073a1.5,1.5,0,0,1,2.087,0Zm.032,6.28H89.761a1.465,1.465,0,0,0-1.472,1.341l0,.109v8.69a1.459,1.459,0,0,0,1.366,1.444l.11,0h14.758a1.465,1.465,0,0,0,1.472-1.341l0-.108V124.2a1.463,1.463,0,0,0-1.476-1.448Zm-11.806,2.9a1.463,1.463,0,0,1,1.476,1.448v1.448a1.476,1.476,0,0,1-2.952,0v-1.448A1.463,1.463,0,0,1,92.712,125.644Zm8.855,0a1.463,1.463,0,0,1,1.476,1.448v1.448a1.476,1.476,0,0,1-2.952,0v-1.448A1.463,1.463,0,0,1,101.567,125.644Z" transform="translate(-76.182 -105.828)" fill="#fff"/>
</svg>
