<svg id="TencentCloud" xmlns="http://www.w3.org/2000/svg" width="41.578" height="41.578" viewBox="0 0 41.578 41.578">
  <g id="qqq" transform="translate(0 0)">
    <rect id="矩形_1" data-name="矩形 1" width="41.578" height="41.578" rx="20.789" transform="translate(0 0)" fill="#fff"/>
  </g>
  <g id="组_376" data-name="组 376" transform="translate(6.657 9.428)">
    <path id="路径_44" data-name="路径 44" d="M356.221,346.578a4.157,4.157,0,0,1-3.069,1.18H343c3.069-2.951,5.665-5.429,5.9-5.665a18.394,18.394,0,0,1,1.416-1.3,3.993,3.993,0,0,1,2.951-1.18,4.414,4.414,0,0,1,2.951,1.18,3.993,3.993,0,0,1,0,5.783m2.007-7.672a6.593,6.593,0,0,0-4.839-2.125,7.272,7.272,0,0,0-4.367,1.534,21.141,21.141,0,0,0-1.77,1.652c-.472.472-10.623,10.387-10.623,10.387a10.159,10.159,0,0,0,1.889.118h12.865a14.314,14.314,0,0,0,2.361-.118,7.255,7.255,0,0,0,4.367-1.889,6.733,6.733,0,0,0,.118-9.561Z" transform="translate(-331.476 -329.336)" fill="#00a3ff"/>
    <path id="路径_45" data-name="路径 45" d="M184.679,338.2a6.736,6.736,0,0,0-4.131-1.416,6.593,6.593,0,0,0-4.839,2.125,6.876,6.876,0,0,0,.118,9.679,6.245,6.245,0,0,0,3.777,1.771l2.715-2.6h-1.534a4.654,4.654,0,0,1-3.069-1.18,4.242,4.242,0,0,1-.118-5.9,3.915,3.915,0,0,1,2.951-1.18,3.766,3.766,0,0,1,2.833,1.18c.472.472,1.77,1.416,2.242,1.888h.118l1.77-1.77v-.118c-.826-.826-2.125-1.888-2.833-2.479" transform="translate(-173.775 -329.336)" fill="#00c8dc"/>
    <path id="路径_46" data-name="路径 46" d="M350.24,131.722a8.7,8.7,0,0,0-16.911,1.652c.34,0,.681-.118,1.135-.118s1.021.118,1.475.118a6.155,6.155,0,0,1,6.015-5.075,6.274,6.274,0,0,1,5.675,3.777s.113.118.113,0a18.165,18.165,0,0,1,2.5-.354h0" transform="translate(-327.619 -125.702)" fill="#006eff"/>
  </g>
</svg>
